<?xml version="1.0" encoding="UTF-8" standalone="no"?>
<svg
   height="16"
   width="16"
   version="1.1"
   id="svg6"
   xmlns="http://www.w3.org/2000/svg"
   xmlns:svg="http://www.w3.org/2000/svg">
  <defs
     id="defs10" />
  <g
     transform="translate(-597,171)"
     id="g4"
     style="fill:#555761">
    <path
       color="#bebebe"
       d="m 604.5,-170 c -0.277,0 -0.5,0.223 -0.5,0.5 v 4.875 l -1.719,-1.5 c -0.313,-0.273 -0.758,-0.22 -1.03,0.094 a 0.753,0.753 0 0 0 0.062,1.062 l 2.25,1.969 -2.25,1.969 a 0.753,0.753 0 0 0 -0.063,1.062 c 0.273,0.313 0.718,0.367 1.031,0.094 l 1.72,-1.5 v 4.875 c 0,0.277 0.222,0.5 0.5,0.5 0.282,0 0.437,-0.02 0.655,-0.188 l 3.532,-3.156 a 0.78,0.78 0 0 0 0.218,-0.375 0.745,0.745 0 0 0 0.032,-0.281 0.723,0.723 0 0 0 -0.032,-0.156 0.78,0.78 0 0 0 -0.218,-0.375 l -2.813,-2.47 2.813,-2.468 a 0.78,0.78 0 0 0 0.218,-0.375 0.71,0.71 0 0 0 0,-0.437 0.78,0.78 0 0 0 -0.218,-0.375 l -3.532,-3.157 c -0.199,-0.16 -0.427,-0.187 -0.656,-0.187 z m 0.5,2.063 2.094,1.875 -2.094,1.812 z m 0,6.187 2.094,1.813 -2.094,1.875 z"
       fill="#666"
       overflow="visible"
       style="fill:#555761;marker:none"
       id="path2" />
  </g>
</svg>
