<?xml version="1.0" encoding="UTF-8" standalone="no"?>
<svg
   height="16"
   width="16"
   version="1.1"
   id="svg6"
   xmlns="http://www.w3.org/2000/svg"
   xmlns:svg="http://www.w3.org/2000/svg">
  <defs
     id="defs10" />
  <path
     id="path2"
     style="font-variation-settings:normal;opacity:0.5;vector-effect:none;fill:#666666;fill-opacity:1;stroke:none;stroke-width:1;stroke-linecap:butt;stroke-linejoin:miter;stroke-miterlimit:4;stroke-dasharray:none;stroke-dashoffset:0;stroke-opacity:1;-inkscape-stroke:none;marker:none;stop-color:#000000"
     d="M 7.5,1 C 7.223,1 7,1.2230003 7,1.5 V 6.375 L 5.28125,4.875 C 5.1001358,4.7170314 4.8744787,4.6710066 4.6640625,4.71875 l 6.9785155,6.978516 0.04492,-0.04102 a 0.78,0.78 0 0 0 0.21875,-0.375 A 0.745,0.745 0 0 0 11.9375,11 0.723,0.723 0 0 0 11.90625,10.84375 0.78,0.78 0 0 0 11.6875,10.46875 L 8.875,7.998047 11.6875,5.53125 a 0.78,0.78 0 0 0 0.21875,-0.375 0.71,0.71 0 0 0 0,-0.4375 0.78,0.78 0 0 0 -0.21875,-0.375 L 8.15625,1.1875 C 7.95725,1.0275002 7.729,1 7.5,1 Z M 8,3.0625 10.09375,4.9375 8,6.75 Z M 6.357422,8.177734 4.3125,9.96875 A 0.753,0.753 0 0 0 4.25,11.03125 c 0.2729997,0.313 0.7182503,0.36675 1.03125,0.09375 l 1.720703,-1.5 V 14.5 c 0,0.277 0.222,0.5 0.5,0.5 0.282,0 0.436297,-0.0195 0.654297,-0.1875 L 10.708984,12.529297 9.644531,11.464844 8,12.9375 V 9.820312 Z" />
  <rect
     style="font-variation-settings:normal;vector-effect:none;fill:#555761;fill-opacity:1;stroke:none;stroke-width:0.992001;stroke-linecap:square;stroke-linejoin:miter;stroke-miterlimit:4;stroke-dasharray:none;stroke-dashoffset:0;stroke-opacity:1;-inkscape-stroke:none;marker:none;stop-color:#000000"
     id="rect2480-1-6"
     width="1.248"
     height="19.799999"
     x="-0.16605946"
     y="1.8671013"
     rx="0.5"
     ry="0.5"
     transform="rotate(-45)" />
</svg>
