<?xml version="1.0" encoding="UTF-8" standalone="no"?>
<svg
   height="16"
   width="16"
   version="1.1"
   id="svg6"
   xmlns="http://www.w3.org/2000/svg"
   xmlns:svg="http://www.w3.org/2000/svg">
  <defs
     id="defs10" />
  <path
     id="path846"
     style="opacity:0.5;fill:#555761;marker:none"
     d="M 2.3183594,1 C 2.0405499,1.0005444 1.7857496,1.1546096 1.65625,1.4003906 H 1.6543 C 0.5685687,3.4307553 3.585e-4,5.6975709 0,8 c 3.45e-4,2.302426 0.5685872,4.56924 1.6542969,6.599609 H 1.65625 C 1.7857573,14.845406 2.0405329,14.999473 2.3183594,15 c 0.4142128,0 0.75,-0.335786 0.75,-0.75 -3.55e-4,-0.124927 -0.031907,-0.247786 -0.091797,-0.357422 C 2.0073241,12.079688 1.5001582,10.055722 1.5,8 1.5001573,5.944278 2.007325,3.9203124 2.9765625,2.1074219 3.0364523,1.9977864 3.0680048,1.8749266 3.0683594,1.75 3.0683594,1.3357872 2.7325722,1 2.3183594,1 Z M 13.681641,1 c -0.414214,0 -0.75,0.3357872 -0.75,0.75 3.55e-4,0.1249266 0.03191,0.2477864 0.0918,0.3574219 C 13.992672,3.9203124 14.499843,5.944278 14.5,8 c -1.58e-4,2.055722 -0.507323,4.079688 -1.476562,5.892578 -0.05989,0.109636 -0.09145,0.232495 -0.0918,0.357422 0,0.414214 0.335786,0.75 0.75,0.75 0.277825,-5.27e-4 0.532601,-0.154594 0.662109,-0.400391 h 0.002 C 15.431369,12.56924 15.999655,10.302426 16,8 15.999641,5.6975709 15.431428,3.4307553 14.345703,1.4003906 h -0.002 C 14.214297,1.1546096 13.959449,1.0005444 13.681641,1 Z" />
  <path
     id="path844"
     style="fill:#555761;marker:none"
     d="M 7.5,1 C 7.223,1 7,1.2230006 7,1.5 V 6.375 L 5.28125,4.875 C 4.9682506,4.6020006 4.5239527,4.6547506 4.2519531,4.96875 A 0.753,0.753 0 0 0 4.3125,6.03125 L 6.5625,8 4.3125,9.96875 A 0.753,0.753 0 0 0 4.25,11.03125 c 0.2729994,0.313 0.7182506,0.36675 1.03125,0.09375 l 1.720703,-1.5 V 14.5 c 0,0.277 0.222,0.5 0.5,0.5 0.282,0 0.436297,-0.0195 0.654297,-0.1875 l 3.53125,-3.15625 a 0.78,0.78 0 0 0 0.21875,-0.375 A 0.745,0.745 0 0 0 11.9375,11 0.723,0.723 0 0 0 11.90625,10.84375 0.78,0.78 0 0 0 11.6875,10.46875 L 8.875,7.998047 11.6875,5.53125 a 0.78,0.78 0 0 0 0.21875,-0.375 0.71,0.71 0 0 0 0,-0.4375 0.78,0.78 0 0 0 -0.21875,-0.375 L 8.15625,1.1875 C 7.95725,1.0275004 7.729,1 7.5,1 Z M 8,3.0625 10.09375,4.9375 8,6.75 Z M 8,9.25 10.09375,11.0625 8,12.9375 Z" />
</svg>
