<?xml version="1.0" encoding="UTF-8" standalone="no"?>
<svg
   id="svg6"
   version="1.1"
   width="16"
   height="16"
   xmlns="http://www.w3.org/2000/svg"
   xmlns:svg="http://www.w3.org/2000/svg"
   xmlns:rdf="http://www.w3.org/1999/02/22-rdf-syntax-ns#"
   xmlns:cc="http://creativecommons.org/ns#"
   xmlns:dc="http://purl.org/dc/elements/1.1/">
  <metadata
     id="metadata12">
    <rdf:RDF>
      <cc:Work
         rdf:about="">
        <dc:format>image/svg+xml</dc:format>
        <dc:type
           rdf:resource="http://purl.org/dc/dcmitype/StillImage" />
      </cc:Work>
    </rdf:RDF>
  </metadata>
  <defs
     id="defs10" />
  <path
     id="path818"
     style="font-variation-settings:normal;vector-effect:none;fill:#555761;stroke:none;stroke-width:4;opacity:0.5;fill-opacity:1;stroke-linecap:round;stroke-linejoin:round;stroke-miterlimit:4;stroke-dasharray:none;stroke-dashoffset:0;stroke-opacity:1;-inkscape-stroke:none;stop-color:#000000;stop-opacity:1"
     d="M 15.476562 0.005859375 C 14.964324 0.49885022 14.445661 0.98426403 13.923828 1.4648438 A 10 10 0 0 0 11 1 A 10 10 0 0 0 3.5917969 4.2929688 L 4.2949219 4.9960938 C 4.4048653 4.8727824 4.5178788 4.7516524 4.6347656 4.6347656 C 6.3001739 2.9693576 8.6408661 1.9991044 10.996094 1.9980469 L 11 1.9980469 C 11.679165 2.0007739 12.347046 2.128414 13.003906 2.3027344 C 10.994534 4.1062319 8.9140911 5.823388 6.7597656 7.4609375 L 7.4550781 8.15625 C 9.5934992 6.5100144 11.680238 4.7621945 13.685547 2.9414062 C 13.866582 3.6156819 13.999782 4.3022502 14.001953 5 L 14.001953 5.0019531 C 14.001629 6.4464083 13.633049 7.8828235 12.966797 9.1640625 A 3 3 0 0 0 12 9 A 3 3 0 0 0 9.5664062 10.267578 L 10.28125 10.982422 A 2 2 0 0 1 12 10 A 2 2 0 0 1 13.333984 10.513672 A 10 10 0 0 0 15 5 A 10 10 0 0 0 14.556641 2.1386719 C 15.040761 1.6887836 15.522472 1.2367828 15.996094 0.77929688 L 15.476562 0.005859375 z M 2.8066406 5.2734375 A 10 10 0 0 0 1 11 A 10 10 0 0 0 1.6035156 14.392578 A 10 10 0 0 0 5 15 A 10 10 0 0 0 10.513672 13.335938 A 2 2 0 0 1 10.087891 12.552734 L 9.0546875 11.519531 A 3 3 0 0 0 9 12 A 3 3 0 0 0 9.1640625 12.96875 C 7.883814 13.634155 6.4470959 14.001279 5.0039062 14.001953 C 4.1349568 13.998841 3.2830985 13.795786 2.4511719 13.544922 C 2.202035 12.714614 2.0005569 11.86495 1.9980469 10.998047 C 1.9984443 9.227884 2.5462933 7.4656121 3.5253906 5.9921875 L 2.8066406 5.2734375 z " />
  <rect
     style="font-variation-settings:normal;vector-effect:none;fill:#555761;fill-opacity:1;stroke:none;stroke-width:0.992001;stroke-linecap:square;stroke-linejoin:miter;stroke-miterlimit:4;stroke-dasharray:none;stroke-dashoffset:0;stroke-opacity:1;-inkscape-stroke:none;marker:none;stop-color:#000000"
     id="rect2480-1-6"
     width="1.248"
     height="19.799999"
     x="-0.6257652"
     y="1.416185"
     rx="0.5"
     ry="0.5"
     transform="rotate(-45)" />
</svg>
