<?xml version="1.0" encoding="UTF-8" standalone="no"?>
<svg
   height="24"
   width="24"
   version="1.1"
   id="svg1"
   sodipodi:docname="quick-settings.svg"
   inkscape:version="1.3 (0e150ed6c4, 2023-07-21)"
   xmlns:inkscape="http://www.inkscape.org/namespaces/inkscape"
   xmlns:sodipodi="http://sodipodi.sourceforge.net/DTD/sodipodi-0.dtd"
   xmlns="http://www.w3.org/2000/svg"
   xmlns:svg="http://www.w3.org/2000/svg">
  <sodipodi:namedview
     id="namedview1"
     pagecolor="#ffffff"
     bordercolor="#666666"
     borderopacity="1.0"
     inkscape:showpageshadow="2"
     inkscape:pageopacity="0.0"
     inkscape:pagecheckerboard="0"
     inkscape:deskcolor="#d1d1d1"
     inkscape:zoom="46.291667"
     inkscape:cx="11.989199"
     inkscape:cy="12"
     inkscape:window-width="2560"
     inkscape:window-height="1379"
     inkscape:window-x="0"
     inkscape:window-y="30"
     inkscape:window-maximized="1"
     inkscape:current-layer="svg1" />
  <defs
     id="defs1" />
  <path
     id="rect1-7"
     style="fill:#555761;stroke-width:0.99999;stroke-linecap:round;stroke-linejoin:round;stroke-opacity:0.5;-inkscape-stroke:none"
     d="M 7.5 5 C 5.5610019 5 4 6.5610019 4 8.5 C 4 10.438998 5.5610019 12 7.5 12 L 16.5 12 C 18.438998 12 20 10.438998 20 8.5 C 20 6.5610019 18.438998 5 16.5 5 L 7.5 5 z M 7.5 6 L 16.5 6 C 17.884999 6 19 7.1150014 19 8.5 C 19 9.8849986 17.884999 11 16.5 11 L 7.5 11 C 6.1150014 11 5 9.8849986 5 8.5 C 5 7.1150014 6.1150014 6 7.5 6 z " />
  <path
     id="rect1-7-8"
     style="fill:#555761;stroke-width:0.99999;stroke-linecap:round;stroke-linejoin:round;stroke-opacity:0.5;-inkscape-stroke:none"
     d="M -7 13 C -5.3380017 13 -4 14.338002 -4 16 C -4 17.661998 -5.3380017 19 -7 19 L -17 19 C -18.661998 19 -20 17.661998 -20 16 C -20 14.338002 -18.661998 13 -17 13 L -7 13 z M -17 14 A 2 2 0 0 0 -19 16 A 2 2 0 0 0 -17 18 A 2 2 0 0 0 -15 16 A 2 2 0 0 0 -17 14 z "
     transform="scale(-1,1)" />
  <circle
     style="opacity:1;fill:#555761;stroke-width:0.999988;stroke-linecap:round;stroke-linejoin:round;stroke-opacity:0.5;-inkscape-stroke:none"
     id="path2"
     cx="7.5"
     cy="8.5"
     r="1.5" />
</svg>
