<?xml version="1.0" encoding="UTF-8"?>
<svg width="16" height="16" version="1.1" xmlns="http://www.w3.org/2000/svg">
 <path d="m8.0938-8.7374e-7c-0.27608-0.0032-0.72371 0.01962-0.99805 0.05078-0.4017 0.04563-0.79924 0.12081-1.1895 0.22656-0.26648 0.07222-0.69185 0.21742-0.94726 0.32227-2.8319 1.1624-4.7536 3.8451-4.9434 6.9004-0.01712 0.2756-0.01712 0.72443 0 1 0.18977 3.0553 2.1115 5.7379 4.9434 6.9004 0.25544 0.10486 0.68082 0.24992 0.94726 0.32226 2.955 0.80234 6.1143-0.15747 8.125-2.4668 0.18132-0.20825 0.13898-0.52327-0.08008-0.69141l-0.01367-0.0098c-0.21905-0.16814-0.53201-0.12483-0.71484 0.08203-1.2084 1.3672-2.903 2.2082-4.7227 2.3438-0.27532 0.02051-0.7246 0.02135-1 2e-3 -3.4678-0.24456-6.2379-3.0146-6.4824-6.4824-0.01942-0.2754-0.01942-0.7246 0-1 0.24454-3.4678 3.0146-6.2379 6.4824-6.4824 0.2754-0.01942 0.72462-0.01976 1 0 1.4816 0.10629 2.8823 0.68129 4.0059 1.627l-1.2793 1.5488c-0.17034 0.21858-0.07344 0.55865 0.14063 0.71875 0.07079 0.0549 0.15653 0.08592 0.24609 0.08789h3.9062c0.29397-0.02311 0.50912-0.30068 0.47656-0.59375l-0.71875-3.8379c-0.07554-0.36218-0.62163-0.5059-0.86524-0.22852l-1.2676 1.5332c-1.4065-1.1809-3.1896-1.8514-5.0508-1.873z" fill="#555761" style="font-feature-settings:normal;font-variant-alternates:normal;font-variant-caps:normal;font-variant-ligatures:normal;font-variant-numeric:normal;font-variant-position:normal;isolation:auto;mix-blend-mode:normal;shape-padding:0;text-decoration-color:#000000;text-decoration-line:none;text-decoration-style:solid;text-indent:0;text-orientation:mixed;text-transform:none"/>
</svg>
