<?xml version="1.0" encoding="UTF-8"?>
<svg width="16" height="16" version="1.1" xmlns="http://www.w3.org/2000/svg">
 <path d="m8 4.0039c-1.108 0-2 0.9083-2 2.0293v0.9707h-0.5s-0.5 1.5e-6 -0.5 0.5v3s1.5e-6 0.5 0.5 0.5h5s0.5 0 0.5-0.5v-3c0-0.5-0.5-0.5-0.5-0.5h-0.5v-0.9707c0-1.12-0.892-2.0293-2-2.0293zm-0.050781 1c0.017091-8.531e-4 0.033469 0 0.050781 0 0.554 0 1 0.442 1 1v1h-2v-1c0-0.54056 0.41939-0.97355 0.94922-1z" fill="#555761" style="font-feature-settings:normal;font-variant-alternates:normal;font-variant-caps:normal;font-variant-ligatures:normal;font-variant-numeric:normal;font-variant-position:normal;isolation:auto;mix-blend-mode:normal;shape-padding:0;text-decoration-color:#000000;text-decoration-line:none;text-decoration-style:solid;text-indent:0;text-orientation:mixed;text-transform:none"/>
</svg>
