<?xml version="1.0" encoding="UTF-8" standalone="no"?>
<svg
   height="16"
   width="16"
   version="1.1"
   id="svg1"
   xmlns="http://www.w3.org/2000/svg"
   xmlns:svg="http://www.w3.org/2000/svg">
  <defs
     id="defs1" />
  <path
     style="line-height:normal;font-variant-ligatures:normal;font-variant-position:normal;font-variant-caps:normal;font-variant-numeric:normal;font-variant-alternates:normal;font-feature-settings:normal;text-indent:0;text-align:start;text-decoration-line:none;text-decoration-style:solid;text-decoration-color:#000000;text-transform:none;text-orientation:mixed;shape-padding:0;isolation:auto;mix-blend-mode:normal;fill:#555761;opacity:1"
     d="M 8,3 C 6.8920033,3 6,3.9083002 6,5.0292969 V 7 H 5.5 C 5.5,7 5,7.0000015 5,7.5 v 3 c 0,0 1.5e-6,0.5 0.5,0.5 h 5 c 0,0 0.5,-10e-7 0.5,-0.5 v -3 C 11,7.0000015 10.5,7.0000001 10.5,7 H 7 V 5 C 7,4.4594392 7.4193916,4.0264533 7.9492188,4 7.9663097,3.9991468 7.982688,4 8,4 8.5539982,4 9,4.4420018 9,5 l 1,0.029297 C 10,3.9093001 9.1079967,3.0000001 8,3 Z"
     id="path1" />
</svg>
