<?xml version="1.0" encoding="UTF-8" standalone="no"?>
<svg
   height="16"
   width="16"
   version="1.1"
   id="svg228"
   xml:space="preserve"
   xmlns="http://www.w3.org/2000/svg"
   xmlns:svg="http://www.w3.org/2000/svg"><defs
     id="defs232" /><path
     id="path4"
     style="fill:#555761;fill-opacity:1;stroke-width:4;stroke-linecap:round;stroke-linejoin:round;-inkscape-stroke:none"
     d="M 11.5,1 11.201172,2.1972656 10,2.5 11.197266,2.7988281 11.5,4 11.798828,2.8027344 13,2.5 11.802734,2.2011719 Z M 7.597656,2.0292969 A 6,6 0 0 0 2,8 6,6 0 0 0 8,14 6,6 0 0 0 13.695312,9.8535156 5.5,5.5 0 0 1 12.5,10 5.5,5.5 0 0 1 7,4.5 5.5,5.5 0 0 1 7.597656,2.0292969 Z M 13.5,3 13.001953,4.9960938 11,5.5 12.996094,5.9980469 13.5,8 13.998047,6.0039062 16,5.5 14.003906,5.0019531 Z" /></svg>
