<?xml version="1.0" encoding="UTF-8"?>
<svg width="16" height="16" version="1.1" xml:space="preserve" xmlns="http://www.w3.org/2000/svg"><path d="m11.5 1-0.29883 1.1973-1.2012 0.30273 1.1973 0.29883 0.30273 1.2012 0.29883-1.1973 1.2012-0.30273-1.1973-0.29883-0.30273-1.2012zm-3.9023 1.0293a6 6 0 0 0-4.1562 2.1074l8.4219 8.4219a6 6 0 0 0 1.832-2.7051 5.5 5.5 0 0 1-1.1953 0.14648 5.5 5.5 0 0 1-5.5-5.5 5.5 5.5 0 0 1 0.59766-2.4707zm5.9023 0.9707-0.49805 1.9961-2.002 0.50391 1.9961 0.49805 0.50391 2.002 0.49805-1.9961 2.002-0.50391-1.9961-0.49805-0.50391-2.002zm-10.775 2.1855a6 6 0 0 0-0.72461 2.8145 6 6 0 0 0 6 6 6 6 0 0 0 2.8203-0.7207l-8.0957-8.0938z" fill="#555761" opacity=".5" stop-color="#000000" style="-inkscape-stroke:none;font-variation-settings:normal"/><rect transform="rotate(-45)" x="-.62577" y="1.4162" width="1.248" height="19.8" rx=".5" ry=".5" fill="#555761" stop-color="#000000" style="-inkscape-stroke:none;font-variation-settings:normal"/></svg>
