<?xml version="1.0" encoding="UTF-8" standalone="no"?>
<svg
   height="16"
   width="16"
   version="1.1"
   id="svg228"
   xml:space="preserve"
   xmlns="http://www.w3.org/2000/svg"
   xmlns:svg="http://www.w3.org/2000/svg"><defs
     id="defs232" /><path
     id="text3"
     style="font-size:10.996px;line-height:1;font-family:Inter;-inkscape-font-specification:Inter;letter-spacing:-0.512524px;white-space:pre;fill:#555761;stroke-width:3.99999998;-inkscape-stroke:none;opacity:0.5;vector-effect:none;fill-opacity:1;stroke-linecap:round;stroke-linejoin:round;stroke-miterlimit:4;stroke-dasharray:none;stroke-dashoffset:0;stroke-opacity:1"
     d="M 3.875 5 L 0.97070312 13 L 2.0546875 13 L 2.75 11 L 5.1425781 11 L 5.4765625 10 L 3.0957031 10 L 3.703125 8.2539062 C 3.8749373 7.759946 4.1226821 7.1851158 4.4609375 6.0039062 C 4.799193 7.1636393 5.0352268 7.7169928 5.2285156 8.2539062 L 5.6601562 9.4570312 L 6.1542969 7.9824219 L 5.0566406 5 L 3.875 5 z " /><path
     id="text1-75"
     style="font-style:normal;font-variant:normal;font-weight:800;font-stretch:normal;font-size:13.782px;font-family:Inter;-inkscape-font-specification:'Inter Ultra-Bold';vector-effect:none;fill:#555761;fill-opacity:1;stroke-width:4;stroke-linecap:round;stroke-linejoin:round;stroke-miterlimit:4;stroke-dasharray:none;stroke-dashoffset:0;stroke-opacity:1;-inkscape-stroke:none"
     d="M 8.8789062,3 5.5253906,13 H 8.171875 l 0.6105326,-2 h 3.4231544 l 0.647954,2 H 15.52539 L 12.072266,3 Z m 1.5722658,1.8867188 c 0.323885,1.3422806 0.654983,2.603202 1.00586,3.7441406 L 11.576832,9 H 9.413153 L 9.5214844,8.6308594 C 9.8521176,7.4966322 10.147529,6.2357108 10.451172,4.8867188 Z" /></svg>
