<?xml version="1.0" encoding="UTF-8" standalone="no"?>
<svg
   height="16"
   width="16"
   version="1.1"
   id="svg228"
   xml:space="preserve"
   xmlns:xlink="http://www.w3.org/1999/xlink"
   xmlns="http://www.w3.org/2000/svg"
   xmlns:svg="http://www.w3.org/2000/svg"><defs
     id="defs232"><linearGradient
       gradientTransform="matrix(0.73913043,0,0,0.73913043,0.80112621,0.26087012)"
       gradientUnits="userSpaceOnUse"
       y2="44.5"
       x2="44"
       y1="0"
       x1="44"
       id="linearGradient1071"
       xlink:href="#linearGradient1069" /><linearGradient
       id="linearGradient1069"><stop
         id="stop1065"
         offset="0"
         style="stop-color:#ed5353;stop-opacity:1" /><stop
         id="stop1067"
         offset="1"
         style="stop-color:#c6262e;stop-opacity:1" /></linearGradient><linearGradient
       gradientTransform="matrix(0.73913045,0,0,0.74477236,34.279982,4.8839498)"
       gradientUnits="userSpaceOnUse"
       y2="37.724575"
       x2="-17.375"
       y1="-6.125"
       x1="-17.375"
       id="linearGradient1063"
       xlink:href="#linearGradient1061" /><linearGradient
       id="linearGradient1061"><stop
         id="stop1057"
         offset="0"
         style="stop-color:#4d4d4d;stop-opacity:1" /><stop
         id="stop1059"
         offset="1"
         style="stop-color:#333333;stop-opacity:1" /></linearGradient></defs><path
     id="text1"
     style="font-style:normal;font-variant:normal;font-weight:800;font-stretch:normal;font-size:13.782px;font-family:Inter;-inkscape-font-specification:'Inter Ultra-Bold';opacity:0.5;vector-effect:none;fill:#555761;fill-opacity:1;stroke-width:4;stroke-linecap:round;stroke-linejoin:round;stroke-miterlimit:4;stroke-dasharray:none;stroke-dashoffset:0;stroke-opacity:1;-inkscape-stroke:none"
     d="M 8.855049 3.0080826 L 7.4856914 7.1148204 L 8.7557072 10.812255 C 8.7720913 10.885184 8.7918817 10.957172 8.8141436 11.029636 L 12.172284 11.029636 L 12.818979 13.035025 L 15.483675 13.035025 L 12.039828 3.0080826 L 8.855049 3.0080826 z M 10.42309 4.8998846 C 10.746105 6.2457802 11.076313 7.5101014 11.426247 8.6541127 L 11.545067 9.0242479 L 9.3887673 9.0242479 L 9.4959005 8.6541127 C 9.825645 7.5168309 10.120263 6.2525097 10.42309 4.8998846 z "
     transform="scale(1.0026942,0.99731303)" /><path
     id="text1-7"
     style="font-style:normal;font-variant:normal;font-weight:800;font-stretch:normal;font-size:11.0256px;font-family:Inter;-inkscape-font-specification:'Inter Ultra-Bold';opacity:1;vector-effect:none;fill:#555761;fill-opacity:1;stroke-width:4;stroke-linecap:round;stroke-linejoin:round;stroke-miterlimit:4;stroke-dasharray:none;stroke-dashoffset:0;stroke-opacity:1;-inkscape-stroke:none"
     d="M 3.1594565,5.013471 0.48502138,13.035025 H 2.5945722 l 0.6314206,-2.005389 h 2.4129199 l 0.6916876,2.005389 H 8.4635257 L 5.7072797,5.013471 Z m 1.2544328,1.5118749 c 0.2584123,1.0767177 0.5225788,2.0889558 0.8025254,3.0041658 l 0.155526,0.4974303 H 3.525228 L 3.6717482,9.5295117 C 3.935544,8.6196852 4.1716278,7.6074472 4.4138893,6.5253459 Z"
     transform="scale(1.0026942,0.99731303)" /></svg>
