<?xml version="1.0" encoding="UTF-8" standalone="no"?>
<svg
   height="16"
   width="16"
   version="1.1"
   id="svg228"
   xml:space="preserve"
   xmlns="http://www.w3.org/2000/svg"
   xmlns:svg="http://www.w3.org/2000/svg"><defs
     id="defs232" /><path
     id="text1-7"
     style="font-style:normal;font-variant:normal;font-weight:800;font-stretch:normal;font-size:11.0256px;font-family:Inter;-inkscape-font-specification:'Inter Ultra-Bold';opacity:1;vector-effect:none;fill:#555761;fill-opacity:1;stroke-width:4;stroke-linecap:round;stroke-linejoin:round;stroke-miterlimit:4;stroke-dasharray:none;stroke-dashoffset:0;stroke-opacity:1;-inkscape-stroke:none"
     d="M 3.1594565,5.013471 0.48502138,13.035025 H 2.5945722 l 0.6314206,-2.005389 h 2.4129199 l 0.6916876,2.005389 H 8.4635257 L 5.7072797,5.013471 Z m 1.2544328,1.5118749 c 0.2584123,1.0767177 0.5225788,2.0889558 0.8025254,3.0041658 l 0.155526,0.4974303 H 3.525228 L 3.6717482,9.5295117 C 3.935544,8.6196852 4.1716278,7.6074472 4.4138893,6.5253459 Z"
     transform="scale(1.0026942,0.99731303)" /><path
     id="text3-6"
     style="font-size:13.745px;line-height:1;font-family:Inter;-inkscape-font-specification:Inter;letter-spacing:-0.503373px;white-space:pre;opacity:0.5;fill:#555761;stroke-width:4;stroke-linecap:round;stroke-linejoin:round"
     d="M 9.7636719 3 L 7.8808594 8.1835938 L 8.5195312 10.029297 L 8.5292969 10 L 12.503906 10 L 13.576172 13 L 14.917969 13 L 11.240234 3 L 9.7636719 3 z M 10.496094 4.0195312 C 10.918914 5.4691991 11.213467 6.3952637 11.455078 7.0664062 L 12.146484 9 L 8.8769531 9 L 9.5488281 7.0664062 C 9.7635937 6.4489551 10.073274 5.4960449 10.496094 4.0195312 z " /></svg>
