<?xml version="1.0" encoding="UTF-8" standalone="no"?>
<svg
   height="16"
   width="16"
   version="1.1"
   id="svg228"
   xml:space="preserve"
   xmlns="http://www.w3.org/2000/svg"
   xmlns:svg="http://www.w3.org/2000/svg"><defs
     id="defs232" /><path
     id="text1"
     style="font-style:normal;font-variant:normal;font-weight:800;font-stretch:normal;font-size:13.782px;font-family:Inter;-inkscape-font-specification:'Inter Ultra-Bold';opacity:1;vector-effect:none;fill:#555761;fill-opacity:1;stroke-width:4;stroke-linecap:round;stroke-linejoin:round;stroke-miterlimit:4;stroke-dasharray:none;stroke-dashoffset:0;stroke-opacity:1;-inkscape-stroke:none"
     d="M 8.8550489,3.0080826 5.5105441,13.035025 h 2.6393734 l 0.6088921,-2.005389 h 3.4139564 l 0.646213,2.005389 h 2.664695 L 12.039828,3.0080826 Z m 1.5680411,1.891802 c 0.323015,1.345897 0.653223,2.6102156 1.003157,3.7542281 l 0.119479,0.3701352 H 9.3878602 L 9.4959005,8.6541127 C 9.8256453,7.5168297 10.120263,6.2525111 10.42309,4.8998846 Z"
     transform="scale(1.0026942,0.99731303)" /><path
     id="text1-7"
     style="font-style:normal;font-variant:normal;font-weight:800;font-stretch:normal;font-size:11.0256px;font-family:Inter;-inkscape-font-specification:'Inter Ultra-Bold';opacity:0.5;vector-effect:none;fill:#555761;fill-opacity:1;stroke-width:4;stroke-linecap:round;stroke-linejoin:round;stroke-miterlimit:4;stroke-dasharray:none;stroke-dashoffset:0;stroke-opacity:1;-inkscape-stroke:none"
     d="M 3.1594565 5.013471 L 0.48502138 13.035025 L 2.5945722 13.035025 L 3.2256844 11.029636 L 5.1287602 11.029636 L 6.43189 7.122654 L 5.7072797 5.013471 L 3.1594565 5.013471 z M 4.4138893 6.5253459 C 4.6723014 7.6020625 4.9364684 8.6143027 5.2164147 9.5295118 L 5.3722448 10.026942 L 3.5256574 10.026942 L 3.6717482 9.5295118 C 3.9355437 8.6196862 4.1716281 7.6074461 4.4138893 6.5253459 z "
     transform="scale(1.0026942,0.99731303)" /></svg>
